<svg width="10" height="12" viewBox="0 0 10 12" fill="none" xmlns="http://www.w3.org/2000/svg">
<path d="M5.77745 0.72827C5.48126 0.421469 4.97989 0.421469 4.65864 0.72827L0.546669 4.65533C0.225421 4.96213 0.205078 5.46038 0.501273 5.76718C0.797468 6.07398 1.29883 6.07398 1.62008 5.76718L4.32894 3.17777L4.02149 10.7079C4.00375 11.1423 4.3426 11.4933 4.77975 11.4933C5.2169 11.4933 5.58441 11.1423 5.60215 10.7079L5.9096 3.17777L8.40711 5.76473C8.70331 6.07153 9.20467 6.07153 9.52592 5.76473C9.84717 5.45792 9.86751 4.95968 9.57132 4.65288L5.78002 0.725816L5.77745 0.72827Z" fill="#F4F4F4"/>
</svg>
